<mxfile host="app.diagrams.net" modified="2023-06-27T06:05:54.960Z" agent="Mozilla/5.0 (Windows NT 10.0; Win64; x64; rv:105.0) Gecko/20100101 Firefox/105.0" etag="I710v0uEN-2X98NaIf3-" version="21.5.0" type="device">
  <diagram name="Страница 1" id="AU4zg8oOjna1fn56Bf-q">
    <mxGraphModel dx="1434" dy="782" grid="1" gridSize="10" guides="1" tooltips="1" connect="1" arrows="1" fold="1" page="1" pageScale="1" pageWidth="827" pageHeight="1169" math="0" shadow="0">
      <root>
        <mxCell id="0" />
        <mxCell id="1" parent="0" />
        <mxCell id="4mFFqFzl4g6RUVjY3Gq1-1" value="Клиент" style="shape=umlActor;verticalLabelPosition=bottom;verticalAlign=top;html=1;" vertex="1" parent="1">
          <mxGeometry x="80" y="80" width="40" height="80" as="geometry" />
        </mxCell>
        <mxCell id="4mFFqFzl4g6RUVjY3Gq1-2" value="Админ" style="shape=umlActor;verticalLabelPosition=bottom;verticalAlign=top;html=1;" vertex="1" parent="1">
          <mxGeometry x="630" y="80" width="40" height="80" as="geometry" />
        </mxCell>
        <mxCell id="4mFFqFzl4g6RUVjY3Gq1-3" value="Зарегистрироваться или зайти в личный кабинет" style="ellipse;whiteSpace=wrap;html=1;" vertex="1" parent="1">
          <mxGeometry x="200" y="100" width="140" height="70" as="geometry" />
        </mxCell>
        <mxCell id="4mFFqFzl4g6RUVjY3Gq1-6" value="" style="endArrow=classic;html=1;rounded=0;exitX=1;exitY=0.3333333333333333;exitDx=0;exitDy=0;exitPerimeter=0;entryX=0;entryY=0.5;entryDx=0;entryDy=0;" edge="1" parent="1" source="4mFFqFzl4g6RUVjY3Gq1-1" target="4mFFqFzl4g6RUVjY3Gq1-3">
          <mxGeometry width="50" height="50" relative="1" as="geometry">
            <mxPoint x="390" y="420" as="sourcePoint" />
            <mxPoint x="440" y="370" as="targetPoint" />
          </mxGeometry>
        </mxCell>
        <mxCell id="4mFFqFzl4g6RUVjY3Gq1-7" value="&lt;div&gt;Сделать заказ&lt;/div&gt;" style="ellipse;whiteSpace=wrap;html=1;" vertex="1" parent="1">
          <mxGeometry x="210" y="200" width="100" height="60" as="geometry" />
        </mxCell>
        <mxCell id="4mFFqFzl4g6RUVjY3Gq1-8" value="Посмотреть меню" style="ellipse;whiteSpace=wrap;html=1;" vertex="1" parent="1">
          <mxGeometry x="200" y="20" width="120" height="60" as="geometry" />
        </mxCell>
        <mxCell id="4mFFqFzl4g6RUVjY3Gq1-10" value="" style="endArrow=classic;html=1;rounded=0;exitX=1;exitY=0.3333333333333333;exitDx=0;exitDy=0;exitPerimeter=0;entryX=0;entryY=0.5;entryDx=0;entryDy=0;" edge="1" parent="1" source="4mFFqFzl4g6RUVjY3Gq1-1" target="4mFFqFzl4g6RUVjY3Gq1-8">
          <mxGeometry width="50" height="50" relative="1" as="geometry">
            <mxPoint x="390" y="360" as="sourcePoint" />
            <mxPoint x="440" y="310" as="targetPoint" />
          </mxGeometry>
        </mxCell>
        <mxCell id="4mFFqFzl4g6RUVjY3Gq1-11" value="" style="endArrow=classic;html=1;rounded=0;exitX=1;exitY=0.3333333333333333;exitDx=0;exitDy=0;exitPerimeter=0;entryX=0;entryY=0;entryDx=0;entryDy=0;" edge="1" parent="1" source="4mFFqFzl4g6RUVjY3Gq1-1" target="4mFFqFzl4g6RUVjY3Gq1-7">
          <mxGeometry width="50" height="50" relative="1" as="geometry">
            <mxPoint x="390" y="360" as="sourcePoint" />
            <mxPoint x="440" y="310" as="targetPoint" />
          </mxGeometry>
        </mxCell>
        <mxCell id="4mFFqFzl4g6RUVjY3Gq1-12" value="Принятие заказа" style="ellipse;whiteSpace=wrap;html=1;" vertex="1" parent="1">
          <mxGeometry x="294" y="280" width="120" height="80" as="geometry" />
        </mxCell>
        <mxCell id="4mFFqFzl4g6RUVjY3Gq1-13" value="Просмотр новых или нынешних клиентов" style="ellipse;whiteSpace=wrap;html=1;" vertex="1" parent="1">
          <mxGeometry x="470" y="20" width="120" height="80" as="geometry" />
        </mxCell>
        <mxCell id="4mFFqFzl4g6RUVjY3Gq1-14" value="" style="endArrow=classic;html=1;rounded=0;exitX=0;exitY=0.3333333333333333;exitDx=0;exitDy=0;exitPerimeter=0;entryX=1;entryY=0.5;entryDx=0;entryDy=0;" edge="1" parent="1" source="4mFFqFzl4g6RUVjY3Gq1-2" target="4mFFqFzl4g6RUVjY3Gq1-13">
          <mxGeometry width="50" height="50" relative="1" as="geometry">
            <mxPoint x="390" y="360" as="sourcePoint" />
            <mxPoint x="440" y="310" as="targetPoint" />
          </mxGeometry>
        </mxCell>
        <mxCell id="4mFFqFzl4g6RUVjY3Gq1-15" value="" style="endArrow=none;dashed=1;html=1;rounded=0;exitX=1;exitY=0.5;exitDx=0;exitDy=0;entryX=0;entryY=0.5;entryDx=0;entryDy=0;" edge="1" parent="1" source="4mFFqFzl4g6RUVjY3Gq1-3" target="4mFFqFzl4g6RUVjY3Gq1-13">
          <mxGeometry width="50" height="50" relative="1" as="geometry">
            <mxPoint x="390" y="360" as="sourcePoint" />
            <mxPoint x="440" y="310" as="targetPoint" />
          </mxGeometry>
        </mxCell>
        <mxCell id="4mFFqFzl4g6RUVjY3Gq1-16" value="Менеджер" style="shape=umlActor;verticalLabelPosition=bottom;verticalAlign=top;html=1;outlineConnect=0;" vertex="1" parent="1">
          <mxGeometry x="400" y="400" width="40" height="80" as="geometry" />
        </mxCell>
        <mxCell id="4mFFqFzl4g6RUVjY3Gq1-17" value="" style="endArrow=classic;html=1;rounded=0;exitX=0.5;exitY=0;exitDx=0;exitDy=0;exitPerimeter=0;entryX=0.5;entryY=1;entryDx=0;entryDy=0;" edge="1" parent="1" source="4mFFqFzl4g6RUVjY3Gq1-16" target="4mFFqFzl4g6RUVjY3Gq1-12">
          <mxGeometry width="50" height="50" relative="1" as="geometry">
            <mxPoint x="390" y="360" as="sourcePoint" />
            <mxPoint x="440" y="310" as="targetPoint" />
          </mxGeometry>
        </mxCell>
        <mxCell id="4mFFqFzl4g6RUVjY3Gq1-18" value="" style="endArrow=none;dashed=1;html=1;rounded=0;exitX=1;exitY=0.5;exitDx=0;exitDy=0;entryX=0.5;entryY=0;entryDx=0;entryDy=0;" edge="1" parent="1" source="4mFFqFzl4g6RUVjY3Gq1-7" target="4mFFqFzl4g6RUVjY3Gq1-12">
          <mxGeometry width="50" height="50" relative="1" as="geometry">
            <mxPoint x="390" y="360" as="sourcePoint" />
            <mxPoint x="440" y="310" as="targetPoint" />
          </mxGeometry>
        </mxCell>
        <mxCell id="4mFFqFzl4g6RUVjY3Gq1-21" value="Отметить что заказ принят или готов" style="ellipse;whiteSpace=wrap;html=1;" vertex="1" parent="1">
          <mxGeometry x="460" y="290" width="120" height="80" as="geometry" />
        </mxCell>
        <mxCell id="4mFFqFzl4g6RUVjY3Gq1-22" value="" style="endArrow=classic;html=1;rounded=0;exitX=1;exitY=0.3333333333333333;exitDx=0;exitDy=0;exitPerimeter=0;entryX=0;entryY=1;entryDx=0;entryDy=0;" edge="1" parent="1" source="4mFFqFzl4g6RUVjY3Gq1-16" target="4mFFqFzl4g6RUVjY3Gq1-21">
          <mxGeometry width="50" height="50" relative="1" as="geometry">
            <mxPoint x="390" y="360" as="sourcePoint" />
            <mxPoint x="440" y="310" as="targetPoint" />
          </mxGeometry>
        </mxCell>
        <mxCell id="4mFFqFzl4g6RUVjY3Gq1-23" value="" style="endArrow=none;dashed=1;html=1;rounded=0;entryX=1;entryY=0.5;entryDx=0;entryDy=0;exitX=0.5;exitY=0;exitDx=0;exitDy=0;" edge="1" parent="1" source="4mFFqFzl4g6RUVjY3Gq1-21" target="4mFFqFzl4g6RUVjY3Gq1-7">
          <mxGeometry width="50" height="50" relative="1" as="geometry">
            <mxPoint x="390" y="360" as="sourcePoint" />
            <mxPoint x="440" y="310" as="targetPoint" />
          </mxGeometry>
        </mxCell>
      </root>
    </mxGraphModel>
  </diagram>
</mxfile>
